<svg width="1512" height="983" viewBox="0 0 1512 983" fill="none" xmlns="http://www.w3.org/2000/svg">
<path d="M1330.89 586.966C1322.21 621.268 1297.9 649.929 1261.3 672.373C1224.69 694.818 1175.82 711.027 1118.08 720.422C1002.6 739.213 851.749 730.735 692.913 690.512C534.077 650.29 397.374 585.95 304.756 514.462C258.446 478.718 223.177 441.202 201.667 404.039C180.158 366.879 172.421 330.104 181.107 295.801C189.794 261.498 214.102 232.838 250.704 210.394C287.31 187.948 336.183 171.74 393.924 162.344C509.403 143.554 660.252 152.032 819.088 192.254C977.924 232.477 1114.63 296.817 1207.25 368.305C1253.55 404.049 1288.82 441.565 1310.33 478.728C1331.84 515.887 1339.58 552.663 1330.89 586.966Z" stroke="url(#paint0_linear_0_1)"/>
<path d="M1591.5 652.96C1578.86 702.873 1543.49 744.558 1490.28 777.188C1437.06 809.82 1366.02 833.378 1282.11 847.031C1114.29 874.339 895.083 862.017 664.283 803.57C433.482 745.124 234.832 651.631 100.234 547.741C32.935 495.796 -18.3315 441.266 -49.6041 387.238C-80.8752 333.213 -92.139 279.719 -79.4995 229.807C-66.8599 179.894 -31.4937 138.209 21.7215 105.578C74.9395 72.9463 145.98 49.389 229.891 35.7353C397.713 8.42809 616.918 20.7501 847.718 79.1965C1078.52 137.643 1277.17 231.136 1411.77 335.026C1479.07 386.971 1530.33 441.501 1561.6 495.529C1592.88 549.554 1604.14 603.047 1591.5 652.96Z" stroke="url(#paint1_linear_0_1)"/>
<path d="M1908.61 733.263C1891.16 802.17 1842.34 859.703 1768.91 904.729C1695.48 949.756 1597.46 982.256 1481.71 1001.09C1250.2 1038.76 947.814 1021.76 629.446 941.141C311.078 860.519 37.0498 731.552 -148.629 588.235C-241.469 516.576 -312.202 441.345 -355.353 366.795C-398.503 292.247 -414.058 218.411 -396.608 149.504C-379.159 80.597 -330.337 23.0636 -256.907 -21.962C-183.475 -66.9893 -85.4607 -99.4885 30.2956 -118.324C261.806 -155.995 564.188 -138.995 882.556 -58.3735C1200.92 22.2479 1474.95 151.215 1660.63 294.532C1753.47 366.191 1824.2 441.422 1867.36 515.972C1910.5 590.52 1926.06 664.356 1908.61 733.263Z" stroke="url(#paint2_linear_0_1)"/>
<defs>
<linearGradient id="paint0_linear_0_1" x1="220.924" y1="275.935" x2="1216.98" y2="689.165" gradientUnits="userSpaceOnUse">
<stop stop-color="#484848"/>
<stop offset="0.491388" stop-color="#484848" stop-opacity="0.36"/>
<stop offset="1" stop-color="#484848"/>
</linearGradient>
<linearGradient id="paint1_linear_0_1" x1="-21.4285" y1="200.999" x2="1425.78" y2="801.392" gradientUnits="userSpaceOnUse">
<stop stop-color="#484848"/>
<stop offset="0.491388" stop-color="#484848" stop-opacity="0.36"/>
<stop offset="1" stop-color="#484848"/>
</linearGradient>
<linearGradient id="paint2_linear_0_1" x1="-316.326" y1="109.815" x2="1679.84" y2="937.953" gradientUnits="userSpaceOnUse">
<stop stop-color="#484848"/>
<stop offset="0.491388" stop-color="#484848" stop-opacity="0.36"/>
<stop offset="1" stop-color="#484848"/>
</linearGradient>
</defs>
</svg>